<svg width="22" height="22" viewBox="0 0 22 22" fill="none" xmlns="http://www.w3.org/2000/svg">
<path fill-rule="evenodd" clip-rule="evenodd" d="M2.89386 0.142975C1.37114 0.142986 0.125946 1.38817 0.125946 2.91089C0.125946 4.43361 1.37114 5.6788 2.89386 5.67881C4.41659 5.67881 5.66178 4.43361 5.66178 2.91089C5.66178 1.38816 4.41659 0.142975 2.89386 0.142975ZM2.89386 1.14297C3.87616 1.14297 4.66178 1.9286 4.66178 2.91089C4.66178 3.89317 3.87616 4.67881 2.89386 4.67881C1.91159 4.67881 1.12595 3.89316 1.12595 2.91089C1.12595 1.92861 1.91159 1.14299 2.89386 1.14297Z" fill="white"/>
<path fill-rule="evenodd" clip-rule="evenodd" d="M7.58548 0.971497C7.45287 0.971497 7.32571 1.02416 7.23194 1.11793C7.13817 1.2117 7.08548 1.33889 7.08548 1.4715C7.08548 1.6041 7.13817 1.73127 7.23194 1.82504C7.32571 1.91881 7.45287 1.9715 7.58548 1.9715H21.374C21.5066 1.9715 21.6338 1.91881 21.7276 1.82504C21.8213 1.73127 21.874 1.6041 21.874 1.4715C21.874 1.33889 21.8213 1.2117 21.7276 1.11793C21.6338 1.02416 21.5066 0.971497 21.374 0.971497H7.58548Z" fill="white"/>
<path fill-rule="evenodd" clip-rule="evenodd" d="M7.58548 3.85046C7.45287 3.85046 7.32571 3.90315 7.23194 3.99692C7.13817 4.09069 7.08548 4.21786 7.08548 4.35046C7.08548 4.48307 7.13817 4.61026 7.23194 4.70403C7.32571 4.7978 7.45287 4.85046 7.58548 4.85046H13.2928C13.4254 4.85046 13.5525 4.7978 13.6463 4.70403C13.7401 4.61026 13.7928 4.48307 13.7928 4.35046C13.7928 4.21786 13.7401 4.09069 13.6463 3.99692C13.5525 3.90315 13.4254 3.85046 13.2928 3.85046H7.58548Z" fill="white"/>
<path fill-rule="evenodd" clip-rule="evenodd" d="M2.89386 8.23215C1.37114 8.23215 0.125946 9.47734 0.125946 11.0001C0.125946 12.5228 1.37114 13.7678 2.89386 13.7678C4.41659 13.7678 5.66178 12.5228 5.66178 11.0001C5.66178 9.47734 4.41659 8.23215 2.89386 8.23215ZM2.89386 9.23215C3.87616 9.23215 4.66178 10.0178 4.66178 11.0001C4.66178 11.9823 3.87616 12.7678 2.89386 12.7678C1.91159 12.7678 1.12595 11.9823 1.12595 11.0001C1.12595 10.0178 1.91159 9.23215 2.89386 9.23215Z" fill="white"/>
<path fill-rule="evenodd" clip-rule="evenodd" d="M7.58548 9.06046C7.45287 9.06046 7.32571 9.11315 7.23194 9.20691C7.13817 9.30068 7.08548 9.42785 7.08548 9.56046C7.08548 9.69306 7.13817 9.82023 7.23194 9.914C7.32571 10.0078 7.45287 10.0605 7.58548 10.0605H21.374C21.5066 10.0605 21.6338 10.0078 21.7276 9.914C21.8213 9.82023 21.874 9.69306 21.874 9.56046C21.874 9.42785 21.8213 9.30068 21.7276 9.20691C21.6338 9.11315 21.5066 9.06046 21.374 9.06046H7.58548Z" fill="white"/>
<path fill-rule="evenodd" clip-rule="evenodd" d="M7.58548 11.9394C7.45287 11.9394 7.32571 11.9921 7.23194 12.0859C7.13817 12.1796 7.08548 12.3068 7.08548 12.4394C7.08548 12.572 7.13817 12.6992 7.23194 12.793C7.32571 12.8867 7.45287 12.9394 7.58548 12.9394H13.2928C13.4254 12.9394 13.5525 12.8867 13.6463 12.793C13.7401 12.6992 13.7928 12.572 13.7928 12.4394C13.7928 12.3068 13.7401 12.1796 13.6463 12.0859C13.5525 11.9921 13.4254 11.9394 13.2928 11.9394H7.58548Z" fill="white"/>
<path fill-rule="evenodd" clip-rule="evenodd" d="M2.89386 16.3213C1.37115 16.3213 0.125957 17.5663 0.125946 19.089C0.125946 20.6117 1.37114 21.8569 2.89386 21.8569C4.41659 21.8569 5.66178 20.6117 5.66178 19.089C5.66177 17.5663 4.41658 16.3213 2.89386 16.3213ZM2.89386 17.3213C3.87615 17.3213 4.66177 18.1067 4.66178 19.089C4.66178 20.0713 3.87616 20.8569 2.89386 20.8569C1.91159 20.8569 1.12595 20.0713 1.12595 19.089C1.12595 18.1067 1.91159 17.3213 2.89386 17.3213Z" fill="white"/>
<path fill-rule="evenodd" clip-rule="evenodd" d="M7.58548 17.1496C7.45287 17.1496 7.32571 17.2023 7.23194 17.2961C7.13817 17.3898 7.08548 17.517 7.08548 17.6496C7.08548 17.7822 7.13817 17.9094 7.23194 18.0032C7.32571 18.0969 7.45287 18.1496 7.58548 18.1496H21.374C21.5066 18.1496 21.6338 18.0969 21.7276 18.0032C21.8213 17.9094 21.874 17.7822 21.874 17.6496C21.874 17.517 21.8213 17.3898 21.7276 17.2961C21.6338 17.2023 21.5066 17.1496 21.374 17.1496H7.58548Z" fill="white"/>
<path fill-rule="evenodd" clip-rule="evenodd" d="M7.58548 20.0286C7.45287 20.0286 7.32571 20.0813 7.23194 20.1751C7.13817 20.2688 7.08548 20.396 7.08548 20.5286C7.08548 20.6612 7.13817 20.7884 7.23194 20.8822C7.32571 20.9759 7.45287 21.0286 7.58548 21.0286H13.2928C13.4254 21.0286 13.5525 20.9759 13.6463 20.8822C13.7401 20.7884 13.7928 20.6612 13.7928 20.5286C13.7928 20.396 13.7401 20.2688 13.6463 20.1751C13.5525 20.0813 13.4254 20.0286 13.2928 20.0286H7.58548Z" fill="white"/>
</svg>
