<svg width="30" height="30" viewBox="0 0 30 30" fill="none" xmlns="http://www.w3.org/2000/svg">
<path d="M15 0C6.72478 0 0 6.72478 0 15C0 23.2752 6.72478 30 15 30C23.2752 30 30 23.2752 30 15C30 6.72478 23.2752 0 15 0ZM15 1.30435C22.57 1.30435 28.6957 7.43 28.6957 15C28.6957 15.0465 28.6923 15.0924 28.6918 15.1388C28.2747 15.1003 27.7927 15.0638 27.1799 15.042C26.3133 15.0113 25.221 15.0202 23.9827 15.0815C24.0286 14.7617 24.0608 14.4374 24.0617 14.1045C24.1248 12.8833 23.7147 11.7407 23.0477 10.7316C23.2089 10.1748 23.3979 9.46645 23.4451 8.66296C23.499 7.74713 23.42 6.73159 22.6847 6.04535L22.4962 5.86957H22.2389C20.489 5.86957 19.2913 6.60209 18.5589 7.18283C17.5014 6.77349 16.3123 6.52174 15 6.52174C13.6802 6.52174 12.4797 6.77701 11.3787 7.18538C10.6467 6.60436 9.4479 5.86957 7.69616 5.86957H7.44013L7.25161 6.04407C6.53541 6.70912 6.46942 7.6968 6.5141 8.60819C6.55349 9.41185 6.73156 10.1427 6.88986 10.7265C6.21162 11.7553 5.8046 12.9274 5.8046 14.0867C5.8046 14.4204 5.83563 14.7457 5.88103 15.0662C4.70336 15.0116 3.65354 15.0011 2.82014 15.0306C2.20729 15.0523 1.72529 15.0885 1.30817 15.1274C1.30778 15.0848 1.30435 15.0427 1.30435 15C1.30435 7.43 7.43 1.30435 15 1.30435ZM8.08466 7.25926C9.40048 7.38394 10.3904 7.9715 10.8488 8.37891L11.1545 8.64895L11.5315 8.49482C12.5629 8.07013 13.7133 7.82609 15 7.82609C16.2868 7.82609 17.4374 8.07135 18.3908 8.48845L18.7729 8.65659L19.085 8.37891C19.5435 7.97136 20.5351 7.38362 21.8516 7.25926C22.0267 7.54946 22.1788 7.96217 22.1421 8.58653C22.0981 9.33374 21.8982 10.1476 21.7472 10.6309L21.6491 10.9456L21.844 11.2118C22.4893 12.0918 22.8183 13.0441 22.7624 14.051L22.7611 14.0689V14.0867C22.7611 15.7142 22.1751 17.0167 20.9269 17.9819C19.6787 18.9471 17.7083 19.5652 14.935 19.5652C12.1618 19.5652 10.1901 18.9471 8.94192 17.9819C7.69373 17.0167 7.10895 15.7142 7.10895 14.0867C7.10895 13.1315 7.4539 12.0806 8.09103 11.2118L8.2821 10.9519L8.19039 10.6424C8.03926 10.1286 7.85402 9.29615 7.81717 8.5445C7.78653 7.91931 7.93449 7.52415 8.08466 7.25926ZM4.49006 15.6662C4.95095 15.6721 5.47921 15.6969 6.00841 15.7235C6.05897 15.9269 6.11662 16.1269 6.18674 16.3222C4.02976 16.3677 2.41613 16.5846 1.42154 16.7706C1.37948 16.4442 1.34599 16.1152 1.32728 15.7821C2.06231 15.7123 3.09848 15.6484 4.49006 15.6662ZM25.5099 15.6764C26.9006 15.6587 27.9363 15.7227 28.6715 15.7923C28.6528 16.1206 28.6198 16.445 28.5785 16.7667C27.5483 16.5777 25.8911 16.3609 23.6782 16.326C23.7469 16.1346 23.8041 15.938 23.854 15.7388C24.4378 15.7075 25.0073 15.6828 25.5099 15.6764ZM6.46442 16.9693C6.8536 17.7491 7.40968 18.4454 8.14453 19.0137C9.14923 19.7906 10.4554 20.3334 12.0499 20.6237C11.8413 20.8381 11.6516 21.0734 11.4831 21.3218L11.4436 21.2874C11.4472 21.2833 11.1194 21.4473 10.6297 21.4912C10.1399 21.535 9.53584 21.5217 9.00051 21.5217C8.2016 21.5217 7.8497 21.1443 7.28728 20.4569C6.97584 20.0371 6.59615 19.6972 6.2275 19.4391C5.85001 19.1749 5.528 18.9884 5.1295 18.922L5.076 18.913H5.02123C4.71688 18.913 4.42238 18.9351 4.14742 19.2493C4.00994 19.4064 3.91518 19.6973 3.97673 19.9435C4.03828 20.1897 4.19404 20.341 4.33339 20.4339C5.22473 21.0282 5.38226 22.2042 5.9409 23.2503C6.46259 24.2898 7.58848 24.7826 8.73939 24.7826H10.4348V27.9148C5.84857 26.296 2.39001 22.3074 1.52089 17.4151C2.5193 17.227 4.19122 17.0009 6.46442 16.9693ZM23.4018 16.9744C25.7254 16.9942 27.4442 17.22 28.4804 17.4113C27.6124 22.3053 24.1527 26.2956 19.5652 27.9148V24.5215C19.5652 23.4881 19.2259 22.3485 18.6354 21.3982C18.4561 21.1097 18.2452 20.8368 18.0099 20.5919C19.5199 20.2936 20.7602 19.7601 21.7255 19.0137C22.4588 18.4467 23.0136 17.7525 23.4018 16.9744ZM14.1517 20.9345H15.9783C16.5084 20.9345 17.0742 21.357 17.5272 22.086C17.9802 22.815 18.2609 23.794 18.2609 24.5215V28.3033C17.2157 28.5582 16.1242 28.6957 15 28.6957C13.8758 28.6957 12.7843 28.5582 11.7391 28.3033V24.5215C11.7391 23.8101 12.0442 22.8335 12.5276 22.1013C13.011 21.3692 13.6216 20.9345 14.1517 20.9345ZM6.723 21.7052C7.28763 22.2908 7.97121 22.8261 9.00051 22.8261C9.50866 22.8261 10.1429 22.8444 10.7456 22.7904C10.7477 22.7902 10.7498 22.7893 10.752 22.7891C10.6726 23.0174 10.6133 23.2471 10.5634 23.4783H8.73939C7.93504 23.4783 7.36681 23.1877 7.10513 22.6643L7.10003 22.6554L7.09621 22.6478C6.98899 22.4486 6.84825 22.0504 6.723 21.7052Z" fill="white"/>
</svg>
