<svg width="22" height="22" viewBox="0 0 22 22" fill="none" xmlns="http://www.w3.org/2000/svg">
<path fill-rule="evenodd" clip-rule="evenodd" d="M2.1875 4.375C2.47477 4.375 2.75922 4.31842 3.02462 4.20849C3.29002 4.09855 3.53117 3.93742 3.7343 3.7343C3.93742 3.53117 4.09855 3.29002 4.20849 3.02462C4.31842 2.75922 4.375 2.47477 4.375 2.1875C4.375 1.90023 4.31842 1.61578 4.20849 1.35038C4.09855 1.08498 3.93742 0.843832 3.7343 0.640704C3.53117 0.437576 3.29002 0.276446 3.02462 0.166514C2.75922 0.0565815 2.47477 -4.28061e-09 2.1875 0C1.60734 8.64507e-09 1.05094 0.230468 0.640704 0.640704C0.230468 1.05094 0 1.60734 0 2.1875C0 2.76766 0.230468 3.32406 0.640704 3.7343C1.05094 4.14453 1.60734 4.375 2.1875 4.375ZM2.1875 21.875C2.76766 21.875 3.32406 21.6445 3.7343 21.2343C4.14453 20.8241 4.375 20.2677 4.375 19.6875C4.375 19.1073 4.14453 18.5509 3.7343 18.1407C3.32406 17.7305 2.76766 17.5 2.1875 17.5C1.60734 17.5 1.05094 17.7305 0.640704 18.1407C0.230468 18.5509 0 19.1073 0 19.6875C0 20.2677 0.230468 20.8241 0.640704 21.2343C1.05094 21.6445 1.60734 21.875 2.1875 21.875ZM4.375 10.9375C4.375 11.2248 4.31842 11.5092 4.20849 11.7746C4.09855 12.04 3.93742 12.2812 3.7343 12.4843C3.53117 12.6874 3.29002 12.8486 3.02462 12.9585C2.75922 13.0684 2.47477 13.125 2.1875 13.125C1.90023 13.125 1.61578 13.0684 1.35038 12.9585C1.08498 12.8486 0.843832 12.6874 0.640704 12.4843C0.437576 12.2812 0.276446 12.04 0.166514 11.7746C0.0565815 11.5092 -4.2806e-09 11.2248 0 10.9375C8.64507e-09 10.3573 0.230468 9.80094 0.640704 9.3907C1.05094 8.98047 1.60734 8.75 2.1875 8.75C2.76766 8.75 3.32406 8.98047 3.7343 9.3907C4.14453 9.80094 4.375 10.3573 4.375 10.9375ZM10.9375 4.375C11.2248 4.375 11.5092 4.31842 11.7746 4.20849C12.04 4.09855 12.2812 3.93742 12.4843 3.7343C12.6874 3.53117 12.8486 3.29002 12.9585 3.02462C13.0684 2.75922 13.125 2.47477 13.125 2.1875C13.125 1.90023 13.0684 1.61578 12.9585 1.35038C12.8486 1.08498 12.6874 0.843832 12.4843 0.640704C12.2812 0.437576 12.04 0.276446 11.7746 0.166514C11.5092 0.0565815 11.2248 -4.28061e-09 10.9375 0C10.3573 8.64507e-09 9.80094 0.230468 9.3907 0.640704C8.98047 1.05094 8.75 1.60734 8.75 2.1875C8.75 2.76766 8.98047 3.32406 9.3907 3.7343C9.80094 4.14453 10.3573 4.375 10.9375 4.375ZM13.125 19.6875C13.125 20.2677 12.8945 20.8241 12.4843 21.2343C12.0741 21.6445 11.5177 21.875 10.9375 21.875C10.3573 21.875 9.80094 21.6445 9.3907 21.2343C8.98047 20.8241 8.75 20.2677 8.75 19.6875C8.75 19.1073 8.98047 18.5509 9.3907 18.1407C9.80094 17.7305 10.3573 17.5 10.9375 17.5C11.5177 17.5 12.0741 17.7305 12.4843 18.1407C12.8945 18.5509 13.125 19.1073 13.125 19.6875ZM10.9375 13.125C11.5177 13.125 12.0741 12.8945 12.4843 12.4843C12.8945 12.0741 13.125 11.5177 13.125 10.9375C13.125 10.3573 12.8945 9.80094 12.4843 9.3907C12.0741 8.98047 11.5177 8.75 10.9375 8.75C10.3573 8.75 9.80094 8.98047 9.3907 9.3907C8.98047 9.80094 8.75 10.3573 8.75 10.9375C8.75 11.5177 8.98047 12.0741 9.3907 12.4843C9.80094 12.8945 10.3573 13.125 10.9375 13.125ZM21.875 2.1875C21.875 2.76766 21.6445 3.32406 21.2343 3.7343C20.8241 4.14453 20.2677 4.375 19.6875 4.375C19.1073 4.375 18.5509 4.14453 18.1407 3.7343C17.7305 3.32406 17.5 2.76766 17.5 2.1875C17.5 1.60734 17.7305 1.05094 18.1407 0.640704C18.5509 0.230468 19.1073 0 19.6875 0C20.2677 0 20.8241 0.230468 21.2343 0.640704C21.6445 1.05094 21.875 1.60734 21.875 2.1875ZM19.6875 21.875C20.2677 21.875 20.8241 21.6445 21.2343 21.2343C21.6445 20.8241 21.875 20.2677 21.875 19.6875C21.875 19.1073 21.6445 18.5509 21.2343 18.1407C20.8241 17.7305 20.2677 17.5 19.6875 17.5C19.1073 17.5 18.5509 17.7305 18.1407 18.1407C17.7305 18.5509 17.5 19.1073 17.5 19.6875C17.5 20.2677 17.7305 20.8241 18.1407 21.2343C18.5509 21.6445 19.1073 21.875 19.6875 21.875ZM21.875 10.9375C21.875 11.5177 21.6445 12.0741 21.2343 12.4843C20.8241 12.8945 20.2677 13.125 19.6875 13.125C19.1073 13.125 18.5509 12.8945 18.1407 12.4843C17.7305 12.0741 17.5 11.5177 17.5 10.9375C17.5 10.3573 17.7305 9.80094 18.1407 9.3907C18.5509 8.98047 19.1073 8.75 19.6875 8.75C20.2677 8.75 20.8241 8.98047 21.2343 9.3907C21.6445 9.80094 21.875 10.3573 21.875 10.9375Z" fill="white"/>
</svg>
