<svg width="22" height="22" viewBox="0 0 22 22" fill="none" xmlns="http://www.w3.org/2000/svg">
<path fill-rule="evenodd" clip-rule="evenodd" d="M0.987061 0.24707C0.854456 0.247084 0.727284 0.299763 0.633519 0.393529C0.539754 0.487294 0.487074 0.614466 0.487061 0.74707V21.2529C0.487074 21.3855 0.539754 21.5127 0.633519 21.6065C0.727284 21.7002 0.854456 21.7529 0.987061 21.7529H21.0131C21.1457 21.7529 21.2728 21.7002 21.3666 21.6065C21.4604 21.5127 21.513 21.3855 21.5131 21.2529V6.25293V0.74707C21.513 0.614466 21.4604 0.487294 21.3666 0.393529C21.2728 0.299763 21.1457 0.247084 21.0131 0.24707H0.987061ZM1.48706 1.24707H20.5131V5.75293H1.48706V1.24707ZM3.15034 2.84533C3.01773 2.84533 2.89057 2.89799 2.7968 2.99176C2.70303 3.08553 2.65034 3.21272 2.65034 3.34533C2.65034 3.47793 2.70303 3.6051 2.7968 3.69887C2.89057 3.79264 3.01773 3.84533 3.15034 3.84533H3.908C4.04061 3.84533 4.16777 3.79264 4.26154 3.69887C4.35531 3.6051 4.408 3.47793 4.408 3.34533C4.408 3.21272 4.35531 3.08553 4.26154 2.99176C4.16777 2.89799 4.04061 2.84533 3.908 2.84533H3.15034ZM5.97888 2.84533C5.84628 2.84533 5.71911 2.89799 5.62534 2.99176C5.53157 3.08553 5.47888 3.21272 5.47888 3.34533C5.47888 3.47793 5.53157 3.6051 5.62534 3.69887C5.71911 3.79264 5.84628 3.84533 5.97888 3.84533H6.73628C6.86889 3.84533 6.99611 3.79264 7.08987 3.69887C7.18364 3.6051 7.23628 3.47793 7.23628 3.34533C7.23628 3.21272 7.18364 3.08553 7.08987 2.99176C6.99611 2.89799 6.86889 2.84533 6.73628 2.84533H5.97888ZM17.9998 2.84533C17.8672 2.84533 17.74 2.89799 17.6462 2.99176C17.5525 3.08553 17.4998 3.21272 17.4998 3.34533C17.4998 3.47793 17.5525 3.6051 17.6462 3.69887C17.74 3.79264 17.8672 3.84533 17.9998 3.84533H18.7572C18.8898 3.84533 19.017 3.79264 19.1108 3.69887C19.2045 3.6051 19.2572 3.47793 19.2572 3.34533C19.2572 3.21272 19.2045 3.08553 19.1108 2.99176C19.017 2.89799 18.8898 2.84533 18.7572 2.84533H17.9998ZM1.48706 6.75293H20.5131V20.7529H1.48706V6.75293Z" fill="white"/>
</svg>
